HIERARCHY
ROOT hip
{
  OFFSET 0 0 0
  CHANNELS 6 Xposition Yposition Zposition Zrotation Yrotation Xrotation
  JOINT abdomen
  {
    OFFSET 0 20.6881 -0.73152
    CHANNELS 3 Zrotation Xrotation Yrotation
    JOINT chest
    {
      OFFSET 0 11.7043 -0.48768
      CHANNELS 3 Zrotation Xrotation Yrotation
      JOINT neck
      {
        OFFSET 0 22.1894 -2.19456
        CHANNELS 3 Zrotation Xrotation Yrotation
        JOINT head
        {
          OFFSET -0.24384 7.07133 1.2192
          CHANNELS 3 Zrotation Xrotation Yrotation
          JOINT leftEye
          {
            OFFSET 4.14528 8.04674 8.04672
            CHANNELS 3 Zrotation Xrotation Yrotation
            End Site
            {
              OFFSET 1 0 0
            }
          }
          JOINT rightEye
          {
            OFFSET -3.6576 8.04674 8.04672
            CHANNELS 3 Zrotation Xrotation Yrotation
            End Site
            {
              OFFSET 1 0 0
            }
          }
        }
      }
      JOINT rCollar
      {
        OFFSET -2.68224 19.2634 -4.8768
        CHANNELS 3 Zrotation Xrotation Yrotation
        JOINT rShldr
        {
          OFFSET -8.77824 -1.95073 1.46304
          CHANNELS 3 Zrotation Xrotation Yrotation
          JOINT rForeArm
          {
            OFFSET -28.1742 -1.7115 0.48768
            CHANNELS 3 Zrotation Xrotation Yrotation
            JOINT rHand
            {
              OFFSET -22.5879 0.773209 7.07136
              CHANNELS 3 Zrotation Xrotation Yrotation
              JOINT rThumb1
              {
                OFFSET -1.2192 -0.487915 3.41376
                CHANNELS 3 Zrotation Xrotation Yrotation
                JOINT rThumb2
                {
                  OFFSET -3.37035 -0.52449 3.41376
                  CHANNELS 3 Zrotation Xrotation Yrotation
                  End Site
                  {
                    OFFSET -1.78271 -1.18214 1.43049
                  }
                }
              }
              JOINT rIndex1
              {
                OFFSET -7.75947 0.938293 5.60832
                CHANNELS 3 Zrotation Xrotation Yrotation
                JOINT rIndex2
                {
                  OFFSET -2.54057 -0.884171 1.56538
                  CHANNELS 3 Zrotation Xrotation Yrotation
                  End Site
                  {
                    OFFSET -1.62519 -0.234802 1.16502
                  }
                }
              }
              JOINT rMid1
              {
                OFFSET -8.24714 1.18213 3.41376
                CHANNELS 3 Zrotation Xrotation Yrotation
                JOINT rMid2
                {
                  OFFSET -3.10165 -0.590103 1.0647
                  CHANNELS 3 Zrotation Xrotation Yrotation
                  End Site
                  {
                    OFFSET -2.48547 -0.328903 0.83742
                  }
                }
              }
              JOINT rRing1
              {
                OFFSET -8.82822 0.546677 1.51678
                CHANNELS 3 Zrotation Xrotation Yrotation
                JOINT rRing2
                {
                  OFFSET -2.60934 -0.819778 -0.0198488
                  CHANNELS 3 Zrotation Xrotation Yrotation
                  End Site
                  {
                    OFFSET -2.33842 -0.294052 0.168128
                  }
                }
              }
              JOINT rPinky1
              {
                OFFSET -8.27202 -0.0477905 -0.4584
                CHANNELS 3 Zrotation Xrotation Yrotation
                JOINT rPinky2
                {
                  OFFSET -1.82734 -0.647385 -0.700984
                  CHANNELS 3 Zrotation Xrotation Yrotation
                  End Site
                  {
                    OFFSET -1.69225 -0.51767 -0.607171
                  }
                }
              }
            }
          }
        }
      }
      JOINT lCollar
      {
        OFFSET 2.68224 19.2634 -4.8768
        CHANNELS 3 Zrotation Xrotation Yrotation
        JOINT lShldr
        {
          OFFSET 8.77824 -1.95073 1.46304
          CHANNELS 3 Zrotation Xrotation Yrotation
          JOINT lForeArm
          {
            OFFSET 28.1742 -1.7115 0.48768
            CHANNELS 3 Zrotation Xrotation Yrotation
            JOINT lHand
            {
              OFFSET 22.5879 0.773209 7.07136
              CHANNELS 3 Zrotation Xrotation Yrotation
              JOINT lThumb1
              {
                OFFSET 1.2192 -0.487915 3.41376
                CHANNELS 3 Zrotation Xrotation Yrotation
                JOINT lThumb2
                {
                  OFFSET 3.37035 -0.52449 3.41376
                  CHANNELS 3 Zrotation Xrotation Yrotation
                  End Site
                  {
                    OFFSET 1.78271 -1.18214 1.43049
                  }
                }
              }
              JOINT lIndex1
              {
                OFFSET 7.75947 0.938293 5.60832
                CHANNELS 3 Zrotation Xrotation Yrotation
                JOINT lIndex2
                {
                  OFFSET 2.54057 -0.884171 1.56538
                  CHANNELS 3 Zrotation Xrotation Yrotation
                  End Site
                  {
                    OFFSET 1.62519 -0.234802 1.16502
                  }
                }
              }
              JOINT lMid1
              {
                OFFSET 8.24714 1.18213 3.41376
                CHANNELS 3 Zrotation Xrotation Yrotation
                JOINT lMid2
                {
                  OFFSET 3.10165 -0.590103 1.0647
                  CHANNELS 3 Zrotation Xrotation Yrotation
                  End Site
                  {
                    OFFSET 2.48547 -0.328903 0.83742
                  }
                }
              }
              JOINT lRing1
              {
                OFFSET 8.82822 0.546677 1.51678
                CHANNELS 3 Zrotation Xrotation Yrotation
                JOINT lRing2
                {
                  OFFSET 2.60934 -0.819778 -0.0198488
                  CHANNELS 3 Zrotation Xrotation Yrotation
                  End Site
                  {
                    OFFSET 2.33842 -0.294052 0.168128
                  }
                }
              }
              JOINT lPinky1
              {
                OFFSET 8.27202 -0.0477905 -0.4584
                CHANNELS 3 Zrotation Xrotation Yrotation
                JOINT lPinky2
                {
                  OFFSET 1.82734 -0.647385 -0.700984
                  CHANNELS 3 Zrotation Xrotation Yrotation
                  End Site
                  {
                    OFFSET 1.69225 -0.51767 -0.607171
                  }
                }
              }
            }
          }
        }
      }
    }
  }
  JOINT rButtock
  {
    OFFSET -8.77824 4.35084 1.2192
    CHANNELS 3 Zrotation Xrotation Yrotation
    JOINT rThigh
    {
      OFFSET 0 -1.70687 -2.19456
      CHANNELS 3 Zrotation Xrotation Yrotation
      JOINT rShin
      {
        OFFSET 0 -36.8199 0.73152
        CHANNELS 3 Zrotation Xrotation Yrotation
        JOINT rFoot
        {
          OFFSET 0.73152 -45.1104 -5.12064
          CHANNELS 3 Zrotation Xrotation Yrotation
          End Site
          {
            OFFSET -1.1221 -3.69964 12.103
          }
        }
      }
    }
  }
  JOINT lButtock
  {
    OFFSET 8.77824 4.35084 1.2192
    CHANNELS 3 Zrotation Xrotation Yrotation
    JOINT lThigh
    {
      OFFSET 0 -1.70687 -2.19456
      CHANNELS 3 Zrotation Xrotation Yrotation
      JOINT lShin
      {
        OFFSET 0 -36.8199 0.73152
        CHANNELS 3 Zrotation Xrotation Yrotation
        JOINT lFoot
        {
          OFFSET -0.73152 -45.1104 -5.12064
          CHANNELS 3 Zrotation Xrotation Yrotation
          End Site
          {
            OFFSET 1.1221 -3.69964 12.103
          }
        }
      }
    }
  }
}
MOTION
Frames:	9
Frame Time:	0.00833333
7.75045 76.552 40.072 -10.6688 5.3088 -3.078 1.44208 17.2527 4.34298 3.55368 -8.61985 1.38104 3.72772 -3.92325 -1.14696 -2.85699 3.09319 -3.44544 -0.0 0.0 0.0 -0.0 0.0 0.0 1.54929e-13 -1.06374e-13 6.24296e-14 79.6143 21.4581 -14.0099 -13.6963 -6.70961 24.9495 -0.0227642 -4.52152 -0.636633 -1.10661e-09 -2.51071e-10 4.33745e-10 -1.90902e-09 -4.36622e-10 7.46157e-10 -1.10661e-09 -2.5107e-10 4.33731e-10 7.73091 5.47488 0.417314 -1.10661e-09 -2.51071e-10 4.3375e-10 2.90554 0.965183 0.102902 -1.1066e-09 -2.51071e-10 4.33744e-10 10.2786 0.731801 0.0259123 -1.10661e-09 -2.51071e-10 4.33746e-10 2.22167 -0.733487 -0.20892 1.54759e-13 -1.06364e-13 6.22511e-14 -77.8068 10.8273 12.4892 14.2332 -7.14233 -26.0308 0.000747284 -0.815894 0.114699 -8.06824e-10 -7.24731e-10 -7.09917e-10 -1.39276e-09 -1.25315e-09 -1.22667e-09 -8.06827e-10 -7.24731e-10 -7.09905e-10 -7.73091 5.47488 -0.417314 -8.06824e-10 -7.24731e-10 -7.09923e-10 -2.90554 0.965183 -0.102902 -8.06831e-10 -7.24731e-10 -7.0992e-10 -10.2786 0.731801 -0.0259123 -8.06819e-10 -7.2473e-10 -7.09933e-10 -2.22167 -0.733487 0.20892 -2.03217e-16 0.0 -3.88251e-19 -3.4609 -14.4311 -14.4332 -3.97197 77.9895 4.58211 -7.63075 -8.64708 -22.5885 2.03217e-16 0.0 3.88251e-19 5.78057 -40.015 5.23524 1.1272 59.0385 -0.959144 3.9033 -8.88563 12.258
7.76881 76.3336 40.8326 -10.5985 4.9405 -3.1771 1.75401 17.4709 4.33987 3.45765 -8.62751 1.39167 3.79149 -4.01772 -1.0576 -2.98562 3.19399 -3.29209 -0.0 0.0 0.0 -0.0 0.0 0.0 2.26905e-13 -9.78087e-14 4.29872e-14 79.4416 22.1733 -13.5728 -13.8167 -6.80737 25.1858 -0.0353944 -5.36215 -0.75583 -1.51664e-09 5.07871e-11 -3.77379e-10 -2.6164e-09 8.42179e-11 -6.5829e-10 -1.51664e-09 5.07879e-11 -3.77395e-10 7.73091 5.47488 0.417314 -1.51664e-09 5.07876e-11 -3.77373e-10 2.90554 0.965183 0.102902 -1.51663e-09 5.07876e-11 -3.77378e-10 10.2786 0.731801 0.0259123 -1.51664e-09 5.07879e-11 -3.77376e-10 2.22167 -0.733487 -0.20892 2.26737e-13 -9.7797e-14 4.28381e-14 -78.0101 10.8423 11.9239 14.0537 -6.99797 -25.6624 0.000371937 -0.550688 0.0773965 -1.10727e-09 5.32774e-11 -5.58404e-10 -1.9103e-09 9.3009e-11 -9.64351e-10 -1.10728e-09 5.32779e-11 -5.58391e-10 -7.73091 5.47488 -0.417314 -1.10727e-09 5.32772e-11 -5.5841e-10 -2.90554 0.965183 -0.102902 -1.10728e-09 5.3278e-11 -5.58408e-10 -10.2786 0.731801 -0.0259123 -1.10727e-09 5.32791e-11 -5.5842e-10 -2.22167 -0.733487 0.20892 -2.03217e-16 0.0 -3.88251e-19 -3.20596 -15.0839 -14.406 -3.91843 77.8641 4.53197 -7.79102 -8.87475 -22.7774 2.03217e-16 0.0 3.88251e-19 6.40834 -39.6938 5.7743 1.17002 59.842 -1.05412 4.21195 -9.88356 12.5564
7.83742 76.1736 41.5731 -10.302 4.6412 -3.2534 1.46055 17.6816 4.24705 3.56719 -8.68828 1.36919 3.87455 -4.13961 -0.952552 -2.99457 3.29688 -3.12005 -0.0 0.0 0.0 -0.0 0.0 0.0 2.36324e-13 -6.87475e-14 6.38867e-15 79.273 23.2641 -13.1962 -14.0101 -6.964 25.5714 -0.0440927 -5.91117 -0.833826 -1.47625e-09 2.17549e-10 -8.13643e-10 -2.54566e-09 3.71904e-10 -1.41304e-09 -1.47625e-09 2.17549e-10 -8.13659e-10 7.73091 5.47488 0.417314 -1.47625e-09 2.1755e-10 -8.13637e-10 2.90554 0.965183 0.102902 -1.47624e-09 2.1755e-10 -8.13641e-10 10.2786 0.731801 0.0259123 -1.47625e-09 2.17551e-10 -8.13638e-10 2.22167 -0.733487 -0.20892 2.36196e-13 -6.87382e-14 6.26909e-15 -78.2943 11.5822 11.5297 14.0622 -7.00134 -25.687 6.56686e-06 -0.936025 0.131535 -1.15867e-09 5.61031e-10 -3.91994e-10 -1.99865e-09 9.71508e-10 -6.76951e-10 -1.15867e-09 5.61032e-10 -3.9198e-10 -7.73091 5.47488 -0.417314 -1.15867e-09 5.61031e-10 -3.91999e-10 -2.90554 0.965183 -0.102902 -1.15868e-09 5.61032e-10 -3.91996e-10 -10.2786 0.731801 -0.0259123 -1.15866e-09 5.61033e-10 -3.92007e-10 -2.22167 -0.733487 0.20892 -2.03217e-16 0.0 -3.88251e-19 -3.53787 -15.7009 -14.573 -3.86074 77.7315 4.4833 -7.89791 -9.22628 -22.6984 2.03217e-16 0.0 3.88251e-19 6.42218 -39.2668 6.10906 1.19676 60.359 -1.13103 4.48865 -10.7164 12.8464
7.9386 76.0653 42.2966 -9.8785 4.463 -3.2925 0.78908 17.8859 4.10265 3.81155 -8.77797 1.3276 3.97018 -4.2814 -0.834999 -2.92419 3.39771 -2.93155 -0.0 0.0 0.0 -0.0 0.0 0.0 2.08025e-13 -2.31609e-14 -4.13503e-14 79.0959 24.7046 -12.8811 -14.267 -7.17246 26.0924 -0.0504619 -6.32921 -0.893266 -1.14603e-09 3.3415e-10 -1.0747e-09 -1.97422e-09 5.73133e-10 -1.86393e-09 -1.14604e-09 3.34151e-10 -1.07472e-09 7.73091 5.47488 0.417314 -1.14604e-09 3.34153e-10 -1.0747e-09 2.90554 0.965183 0.102902 -1.14603e-09 3.34153e-10 -1.0747e-09 10.2786 0.731801 0.0259123 -1.14604e-09 3.34155e-10 -1.0747e-09 2.22167 -0.733487 -0.20892 2.07967e-13 -2.31566e-14 -4.14373e-14 -78.6494 12.8542 11.2748 14.2392 -7.14523 -26.0454 0.00183688 -1.79908 0.252867 -1.04673e-09 9.53963e-10 -1.73956e-10 -1.80551e-09 1.65118e-09 -3.00548e-10 -1.04673e-09 9.53965e-10 -1.73941e-10 -7.73091 5.47488 -0.417314 -1.04673e-09 9.53963e-10 -1.73958e-10 -2.90554 0.965183 -0.102902 -1.04674e-09 9.53964e-10 -1.73956e-10 -10.2786 0.731801 -0.0259123 -1.04673e-09 9.53965e-10 -1.73966e-10 -2.22167 -0.733487 0.20892 -2.03217e-16 0.0 -3.88251e-19 -4.23407 -16.3016 -14.8456 -3.78741 77.5584 4.42106 -7.94951 -9.64425 -22.418 2.03217e-16 0.0 3.88251e-19 6.05292 -38.7048 6.32039 1.2017 60.5888 -1.1853 4.73404 -11.4152 13.1188
8.05917 76.0023 42.9931 -9.3791 4.4345 -3.26 0.0310941 18.0385 3.89993 4.09088 -8.87099 1.26865 4.07216 -4.4239 -0.719806 -2.83449 3.47284 -2.75135 -0.0 0.0 0.0 -0.0 0.0 0.0 1.65832e-13 1.94937e-14 -8.11115e-14 78.915 26.1732 -12.6245 -14.5641 -7.41788 26.6986 -0.0538888 -6.57646 -0.928428 -7.73422e-10 4.17099e-10 -1.16186e-09 -1.32993e-09 7.16563e-10 -2.01374e-09 -7.73425e-10 4.171e-10 -1.16188e-09 7.73091 5.47488 0.417314 -7.73426e-10 4.17103e-10 -1.16186e-09 2.90554 0.965183 0.102902 -7.73418e-10 4.17104e-10 -1.16186e-09 10.2786 0.731801 0.0259123 -7.73425e-10 4.17107e-10 -1.16185e-09 2.22167 -0.733487 -0.20892 1.65841e-13 1.94929e-14 -8.11721e-14 -79.0041 14.4302 11.081 14.5081 -7.36906 -26.5883 0.00821194 -2.81008 0.395203 -9.2296e-10 1.13089e-09 1.11413e-11 -1.5924e-09 1.95706e-09 1.86832e-11 -9.22961e-10 1.13089e-09 1.11571e-11 -7.73091 5.47488 -0.417314 -9.22959e-10 1.13089e-09 1.11422e-11 -2.90554 0.965183 -0.102902 -9.22968e-10 1.13089e-09 1.11442e-11 -10.2786 0.731801 -0.0259123 -9.22959e-10 1.13089e-09 1.11352e-11 -2.22167 -0.733487 0.20892 -2.03217e-16 0.0 -3.88251e-19 -5.06475 -16.8904 -15.2311 -3.70124 77.3448 4.34511 -7.95101 -10.0488 -22.0387 2.03217e-16 0.0 3.88251e-19 5.52029 -38.1144 6.41722 1.19382 60.6435 -1.22379 4.95354 -12.0244 13.3641
8.18452 75.9806 43.662 -8.8866 4.545 -3.139 -0.522769 18.0936 3.63241 4.30539 -8.94174 1.1941 4.17399 -4.54793 -0.621858 -2.78503 3.49858 -2.60425 -0.0 0.0 0.0 -0.0 0.0 0.0 1.33566e-13 3.97589e-14 -9.37767e-14 78.7416 27.3468 -12.4193 -14.879 -7.68607 27.3399 -0.0539397 -6.61311 -0.933603 -6.05832e-10 4.82904e-10 -1.07643e-09 -1.04062e-09 8.30853e-10 -1.86522e-09 -6.05834e-10 4.82905e-10 -1.07644e-09 7.73091 5.47488 0.417314 -6.05837e-10 4.82909e-10 -1.07643e-09 2.90554 0.965183 0.102902 -6.05828e-10 4.8291e-10 -1.07643e-09 10.2786 0.731801 0.0259123 -6.05836e-10 4.82913e-10 -1.07642e-09 2.22167 -0.733487 -0.20892 1.33609e-13 3.97554e-14 -9.38264e-14 -79.2852 16.082 10.8658 14.7942 -7.61348 -27.1661 0.0162712 -3.63929 0.512164 -9.38847e-10 9.90631e-10 7.87283e-11 -1.62081e-09 1.71419e-09 1.34568e-10 -9.38848e-10 9.90634e-10 7.87442e-11 -7.73091 5.47488 -0.417314 -9.38846e-10 9.90632e-10 7.87315e-11 -2.90554 0.965183 -0.102902 -9.38855e-10 9.90632e-10 7.8733e-11 -10.2786 0.731801 -0.0259123 -9.38846e-10 9.90633e-10 7.87251e-11 -2.22167 -0.733487 0.20892 -2.03217e-16 0.0 -3.88251e-19 -5.80044 -17.4715 -15.7371 -3.60528 77.091 4.25563 -7.91221 -10.3586 -21.6631 2.03217e-16 0.0 3.88251e-19 5.04547 -37.6014 6.40895 1.18365 60.6351 -1.25473 5.1532 -12.5888 13.5734
8.29679 75.9969 44.3061 -8.4958 4.7787 -2.9384 -0.815861 18.0005 3.25972 4.43493 -8.97905 1.09309 4.28511 -4.64957 -0.540721 -2.77754 3.46959 -2.49261 -0.0 0.0 0.0 -0.0 0.0 0.0 1.22405e-13 2.03768e-14 -6.91149e-14 78.5927 28.1755 -12.2774 -15.2217 -7.98675 28.0394 -0.0476525 -6.26502 -0.883975 -8.48371e-10 5.58761e-10 -6.92208e-10 -1.46106e-09 9.63371e-10 -1.2004e-09 -8.48371e-10 5.58762e-10 -6.92221e-10 7.73091 5.47488 0.417314 -8.48375e-10 5.58765e-10 -6.92206e-10 2.90554 0.965183 0.102902 -8.48367e-10 5.58766e-10 -6.92204e-10 10.2786 0.731801 0.0259123 -8.48375e-10 5.5877e-10 -6.92198e-10 2.22167 -0.733487 -0.20892 1.22432e-13 2.03744e-14 -6.91767e-14 -79.4758 17.9047 10.6394 15.1102 -7.89036 -27.8061 0.0227265 -4.2712 0.601398 -1.27785e-09 2.46984e-10 -1.01011e-10 -2.20795e-09 4.27684e-10 -1.77929e-10 -1.27786e-09 2.46986e-10 -1.00996e-10 -7.73091 5.47488 -0.417314 -1.27785e-09 2.46985e-10 -1.01007e-10 -2.90554 0.965183 -0.102902 -1.27786e-09 2.46985e-10 -1.01006e-10 -10.2786 0.731801 -0.0259123 -1.27785e-09 2.46987e-10 -1.01013e-10 -2.22167 -0.733487 0.20892 -2.03217e-16 0.0 -3.88251e-19 -6.43542 -18.0616 -16.4389 -3.49522 76.7771 4.14704 -7.81706 -10.5464 -21.2713 2.03217e-16 0.0 3.88251e-19 4.6582 -37.2158 6.27925 1.17153 60.5644 -1.27729 5.32256 -13.1117 13.7197
8.38708 76.0461 44.9269 -8.2477 5.0907 -2.681 -0.999763 17.7955 2.79928 4.53058 -8.99797 0.968458 4.40504 -4.73865 -0.469938 -2.78444 3.39815 -2.40467 -0.0 0.0 0.0 -0.0 0.0 0.0 1.18035e-13 -2.4252e-14 -1.90336e-14 78.4671 28.8181 -12.1983 -15.5946 -8.31992 28.8128 -0.0375746 -5.60788 -0.790571 -1.32271e-09 6.28268e-10 -5.06815e-11 -2.28284e-09 1.08559e-09 -9.06999e-11 -1.3227e-09 6.28268e-10 -5.06965e-11 7.73091 5.47488 0.417314 -1.32271e-09 6.2827e-10 -5.06803e-11 2.90554 0.965183 0.102902 -1.3227e-09 6.28272e-10 -5.06789e-11 10.2786 0.731801 0.0259123 -1.32271e-09 6.28275e-10 -5.06715e-11 2.22167 -0.733487 -0.20892 1.18014e-13 -2.42513e-14 -1.91237e-14 -79.6123 19.9686 10.4403 15.479 -8.21796 -28.5672 0.0290683 -4.85754 0.684312 -1.8115e-09 -9.5968e-10 -4.47219e-10 -3.13185e-09 -1.65974e-09 -7.78828e-10 -1.8115e-09 -9.59679e-10 -4.47206e-10 -7.73091 5.47488 -0.417314 -1.8115e-09 -9.59679e-10 -4.47213e-10 -2.90554 0.965183 -0.102902 -1.81151e-09 -9.59679e-10 -4.47214e-10 -10.2786 0.731801 -0.0259123 -1.81149e-09 -9.59676e-10 -4.4722e-10 -2.22167 -0.733487 0.20892 -2.03217e-16 0.0 -3.88251e-19 -7.08314 -18.6481 -17.311 -3.37494 76.4096 4.02491 -7.66816 -10.6565 -20.824 2.03217e-16 0.0 3.88251e-19 4.25581 -36.8934 6.03256 1.15211 60.3815 -1.2876 5.45889 -13.573 13.8145
8.45405 76.1278 45.538 -8.1457 5.4351 -2.4131 -1.095 17.5641 2.33093 4.5996 -9.01232 0.842565 4.5122 -4.81663 -0.415372 -2.82129 3.28709 -2.34398 -0.0 0.0 0.0 -0.0 0.0 0.0 1.06043e-13 -6.60982e-14 4.23784e-14 78.3495 29.2638 -12.1522 -15.967 -8.65899 29.598 -0.029938 -4.97675 -0.701166 -1.7011e-09 6.42535e-10 5.95322e-10 -2.93904e-09 1.11233e-09 1.02698e-09 -1.70109e-09 6.42534e-10 5.95306e-10 7.73091 5.47488 0.417314 -1.7011e-09 6.42535e-10 5.95322e-10 2.90554 0.965183 0.102902 -1.70109e-09 6.42537e-10 5.95324e-10 10.2786 0.731801 0.0259123 -1.7011e-09 6.42539e-10 5.95332e-10 2.22167 -0.733487 -0.20892 1.05969e-13 -6.60938e-14 4.22553e-14 -79.6947 22.0085 10.2176 15.8485 -8.55103 -29.3455 0.0346623 -5.31943 0.749747 -2.22335e-09 -2.09069e-09 -7.28451e-10 -3.8453e-09 -3.61661e-09 -1.26679e-09 -2.22336e-09 -2.09069e-09 -7.2844e-10 -7.73091 5.47488 -0.417314 -2.22335e-09 -2.09069e-09 -7.28445e-10 -2.90554 0.965183 -0.102902 -2.22336e-09 -2.09069e-09 -7.28447e-10 -10.2786 0.731801 -0.0259123 -2.22335e-09 -2.09068e-09 -7.28452e-10 -2.22167 -0.733487 0.20892 -2.03217e-16 0.0 -3.88251e-19 -7.68652 -19.1934 -18.2074 -3.25783 76.0281 3.90417 -7.50685 -10.7136 -20.3945 2.03217e-16 0.0 3.88251e-19 3.8599 -36.5683 5.70846 1.12816 60.1218 -1.29007 5.58175 -13.9819 13.9076
